<svg version="1.1" id="main" xmlns="http://www.w3.org/2000/svg" xmlns:xlink="http://www.w3.org/1999/xlink" x="0px" y="0px"
	 viewBox="0 0 60 55" style="enable-background:new 0 0 60 55;" xml:space="preserve">
<style type="text/css">
	.st0{display:none;}
	.st1{display:inline;fill:#0078ca;}
	.st2{display:inline;}
	.st3{fill:#0078ca;}
</style>
<g id="application_development" class="st0">
	<path class="st1" d="M23.7,39.5c-0.2,0-0.5-0.1-0.6-0.2l-6.4-5.5c-0.2-0.2-0.3-0.5-0.3-0.8c0-0.3,0.1-0.6,0.3-0.8l6.4-5.5
		c0.4-0.4,1-0.3,1.4,0.1c0.4,0.4,0.3,1-0.1,1.4l-5.5,4.7l5.5,4.7c0.4,0.4,0.5,1,0.1,1.4C24.2,39.4,24,39.5,23.7,39.5z"/>
	<path class="st1" d="M36.3,39.5c-0.3,0-0.6-0.1-0.8-0.3c-0.4-0.4-0.3-1,0.1-1.4l5.5-4.7l-5.5-4.7c-0.4-0.4-0.5-1-0.1-1.4
		c0.4-0.4,1-0.5,1.4-0.1l6.4,5.5c0.2,0.2,0.3,0.5,0.3,0.8c0,0.3-0.1,0.6-0.3,0.8L37,39.3C36.8,39.5,36.6,39.5,36.3,39.5z"/>
	<path class="st1" d="M27.7,43.6c-0.1,0-0.1,0-0.2,0c-0.5-0.1-0.9-0.6-0.8-1.2l4-19c0.1-0.5,0.6-0.9,1.2-0.8
		c0.5,0.1,0.9,0.6,0.8,1.2l-4,19C28.6,43.3,28.2,43.6,27.7,43.6z"/>
	<path class="st1" d="M53.3,54H6.7C3,54,0,51,0,47.3V7.7C0,4,3,1,6.7,1h46.7C57,1,60,4,60,7.7v39.6C60,51,57,54,53.3,54z M6.7,3
		C4.1,3,2,5.1,2,7.7v39.6C2,49.9,4.1,52,6.7,52h46.7c2.6,0,4.7-2.1,4.7-4.7V7.7C58,5.1,55.9,3,53.3,3H6.7z"/>
	<path class="st1" d="M59,16.9H1c-0.5,0-1-0.4-1-1c0-0.5,0.4-1,1-1h58c0.5,0,1,0.4,1,1C60,16.5,59.6,16.9,59,16.9z"/>
	<path class="st1" d="M16.9,12.2c-1.7,0-3.1-1.4-3.1-3.1c0-1.7,1.4-3.1,3.1-3.1c1.7,0,3.1,1.4,3.1,3.1
		C20.1,10.7,18.7,12.2,16.9,12.2z M16.9,7.9c-0.6,0-1.2,0.5-1.2,1.2c0,0.6,0.5,1.2,1.2,1.2c0.6,0,1.2-0.5,1.2-1.2
		C18.1,8.4,17.6,7.9,16.9,7.9z"/>
	<path class="st1" d="M7.3,12.1c-1.7,0-3.1-1.4-3.1-3.1s1.4-3.1,3.1-3.1s3.1,1.4,3.1,3.1S9,12.1,7.3,12.1z M7.3,7.8
		C6.7,7.8,6.1,8.4,6.1,9c0,0.6,0.5,1.2,1.2,1.2c0.6,0,1.2-0.5,1.2-1.2C8.4,8.4,7.9,7.8,7.3,7.8z"/>
	<path class="st1" d="M26.6,12.2c-1.7,0-3.1-1.4-3.1-3.1c0-1.7,1.4-3.1,3.1-3.1c1.7,0,3.1,1.4,3.1,3.1
		C29.7,10.8,28.3,12.2,26.6,12.2z M26.6,7.9c-0.6,0-1.2,0.5-1.2,1.2c0,0.6,0.5,1.2,1.2,1.2c0.6,0,1.2-0.5,1.2-1.2
		C27.7,8.4,27.2,7.9,26.6,7.9z"/>
</g>
<g id="product_development_and_maintain" class="st0">
	<path class="st1" d="M53.3,54H6.7C3,54,0,51,0,47.3V7.7C0,4,3,1,6.7,1h46.7C57,1,60,4,60,7.7v39.6C60,51,57,54,53.3,54z M6.7,3
		C4.1,3,2,5.1,2,7.7v39.6C2,49.9,4.1,52,6.7,52h46.7c2.6,0,4.7-2.1,4.7-4.7V7.7C58,5.1,55.9,3,53.3,3H6.7z"/>
	<path class="st1" d="M59,16.9H1c-0.5,0-1-0.4-1-1c0-0.5,0.4-1,1-1h58c0.5,0,1,0.4,1,1C60,16.5,59.6,16.9,59,16.9z"/>
	<path class="st1" d="M16.9,12.2c-1.7,0-3.1-1.4-3.1-3.1c0-1.7,1.4-3.1,3.1-3.1c1.7,0,3.1,1.4,3.1,3.1
		C20.1,10.7,18.7,12.2,16.9,12.2z M16.9,7.9c-0.6,0-1.2,0.5-1.2,1.2c0,0.6,0.5,1.2,1.2,1.2c0.6,0,1.2-0.5,1.2-1.2
		C18.1,8.4,17.6,7.9,16.9,7.9z"/>
	<path class="st1" d="M7.3,12.1c-1.7,0-3.1-1.4-3.1-3.1s1.4-3.1,3.1-3.1s3.1,1.4,3.1,3.1S9,12.1,7.3,12.1z M7.3,7.8
		C6.7,7.8,6.1,8.4,6.1,9c0,0.6,0.5,1.2,1.2,1.2c0.6,0,1.2-0.5,1.2-1.2C8.4,8.4,7.9,7.8,7.3,7.8z"/>
	<path class="st1" d="M26.6,12.2c-1.7,0-3.1-1.4-3.1-3.1c0-1.7,1.4-3.1,3.1-3.1c1.7,0,3.1,1.4,3.1,3.1
		C29.7,10.8,28.3,12.2,26.6,12.2z M26.6,7.9c-0.6,0-1.2,0.5-1.2,1.2c0,0.6,0.5,1.2,1.2,1.2c0.6,0,1.2-0.5,1.2-1.2
		C27.7,8.4,27.2,7.9,26.6,7.9z"/>
	<g class="st2">
		<path class="st3" d="M32,46.4h-4.8l0,0c-0.5-0.1-0.9-0.4-1-1l0-0.1l-0.2-2.7c-0.6-0.3-1.1-0.6-1.7-1l-2.5,1.1
			c-0.2,0.1-0.5,0.2-0.8,0.1l-0.1,0c-0.2-0.1-0.4-0.3-0.6-0.5l-2.4-4.1c-0.3-0.5-0.1-1.1,0.3-1.5l0,0l2.3-1.6c-0.1-0.7-0.1-1.3,0-2
			l-2.2-1.6c-0.5-0.3-0.6-1-0.3-1.5l0,0l2.4-4.2l0,0c0.3-0.4,0.8-0.5,1.3-0.3l0,0l2.5,1.2c0.5-0.4,1.1-0.7,1.7-1l0.3-2.9
			c0.1-0.5,0.6-0.9,1.1-0.9h4.8l0,0c0.5,0.1,0.9,0.4,1,1l0,0.1l0.2,2.7c0.6,0.3,1.1,0.6,1.7,1l2.5-1.1c0.5-0.3,1.1-0.1,1.4,0.4
			l2.5,4.2c0.3,0.5,0.1,1.1-0.3,1.5l0,0L39,33.2c0.1,0.7,0.1,1.3,0,2l2.1,1.6c0.5,0.3,0.6,1,0.3,1.5l0,0L39,42.4l0,0.1
			c-0.3,0.4-0.8,0.5-1.3,0.3l0,0l-2.5-1.2c-0.5,0.4-1.1,0.7-1.7,1l-0.3,2.8C33.1,45.9,32.6,46.4,32,46.4z M27.7,44.7h3.8l0.3-3.2
			l0.6-0.3c0.7-0.3,1.3-0.6,1.9-1.1l0.5-0.4l3,1.4l1.9-3.3l-2.5-1.9l0.1-0.7c0.1-0.7,0.1-1.4,0-2.1l0,0l-0.1-0.7l2.7-1.9l-2-3.3
			l-3,1.4l-0.5-0.4c-0.6-0.4-1.2-0.8-1.9-1.1L32,26.8l-0.3-3.2h-3.8l-0.3,3.2l-0.6,0.3c-0.7,0.3-1.3,0.6-1.9,1.1l-0.5,0.4l-3-1.4
			l-1.9,3.3l2.7,1.9l-0.1,0.7c-0.1,0.7-0.1,1.4,0,2.1l0,0l0.1,0.7l-0.6,0.4l-2.2,1.5l1.9,3.3l3-1.4l0.5,0.4c0.6,0.4,1.2,0.8,1.9,1.1
			l0.6,0.3L27.7,44.7z"/>
		<path class="st3" d="M29.7,40.9c-3.7,0-6.7-3-6.7-6.7c0-3.7,3-6.7,6.7-6.7c0,0,0.1,0,0.1,0c1.8,0,3.4,0.7,4.7,2
			c1.2,1.3,1.9,2.9,1.9,4.7C36.4,37.8,33.4,40.9,29.7,40.9z M29.7,29.1c-2.8,0-5.1,2.3-5.1,5.1s2.3,5.1,5.1,5.1s5.1-2.3,5.1-5.1
			c0-2.8-2.2-5-4.9-5.1C29.8,29.1,29.8,29.1,29.7,29.1L29.7,29.1z"/>
		<path class="st3" d="M29.7,37.6c-1.9,0-3.5-1.6-3.5-3.5c0-1.9,1.6-3.5,3.5-3.5c0,0,0,0,0.1,0c1.9,0,3.4,1.6,3.4,3.5
			C33.2,36.1,31.6,37.6,29.7,37.6z M29.7,32.3c-1,0-1.8,0.8-1.8,1.8c0,1,0.8,1.8,1.8,1.8s1.8-0.8,1.8-1.8
			C31.6,33.1,30.8,32.3,29.7,32.3L29.7,32.3z"/>
	</g>
</g>
<g id="big_data_and_anlysis" class="st0">
	<g class="st2">
		<g>
			<path class="st3" d="M25.4,3.7c-10.6,0-19.2,8.6-19.2,19.2s8.6,19.2,19.2,19.2s19.2-8.6,19.2-19.2C44.7,12.3,36.1,3.7,25.4,3.7z
				 M25.4,5.5c5.7,0,11,2.8,14.2,7.4l-2.3,2.3c-0.6-0.3-1.2-0.5-1.8-0.5c-2,0-3.7,1.6-3.7,3.7c0,0.7,0.2,1.3,0.5,1.9l-6,6
				c-1.1-0.7-2.6-0.7-3.7,0L18.5,22c0.3-0.6,0.5-1.2,0.5-1.9c0-2-1.6-3.7-3.7-3.7c-1.7,0-3.1,1.1-3.5,2.7H8.4
				C10.1,11.2,17.2,5.5,25.4,5.5z M37.3,18.3c0,1-0.8,1.8-1.8,1.8c-1,0-1.8-0.8-1.8-1.8s0.8-1.8,1.8-1.8
				C36.5,16.5,37.3,17.3,37.3,18.3z M26.3,29.3c0,1-0.8,1.8-1.8,1.8s-1.8-0.8-1.8-1.8c0-1,0.8-1.8,1.8-1.8S26.3,28.3,26.3,29.3z
				 M17.2,20.2c0,1-0.8,1.8-1.8,1.8s-1.8-0.8-1.8-1.8s0.8-1.8,1.8-1.8S17.2,19.2,17.2,20.2z M33.9,38.1c-2.6,1.4-5.5,2.2-8.5,2.2
				C15.8,40.3,8,32.6,8,22.9c0-0.6,0-1.2,0.1-1.9h3.7c0.4,1.6,1.9,2.7,3.5,2.7c0.7,0,1.3-0.2,1.9-0.5l4.2,4.2
				c-0.3,0.6-0.5,1.2-0.5,1.9c0,2,1.6,3.7,3.7,3.7s3.7-1.6,3.7-3.7c0-0.7-0.2-1.3-0.5-1.9l6-6c0.6,0.3,1.2,0.5,1.9,0.5
				c2,0,3.7-1.6,3.7-3.7c0-0.7-0.2-1.3-0.5-1.9l2-2C45.3,22.9,42.3,33.5,33.9,38.1z"/>
		</g>
	</g>
	<g class="st2">
		<g>
			<path class="st3" d="M48.3,9.2c1.7,0,3.1-1.1,3.5-2.7h5.6V4.6h-5.6C51.5,3,50,1.9,48.3,1.8c-2,0-3.7,1.6-3.7,3.7
				c0,0.7,0.2,1.3,0.5,1.9L43.6,9C35.9-1.1,21.5-3,11.5,4.7S-0.5,26.8,7.2,36.9c7.3,9.5,20.6,11.8,30.6,5.3l2.8,2.8l1.3,1.3l7.4,7.4
				c1.9,1.9,4.9,1.9,6.8,0c1.9-1.9,1.9-4.9,0-6.8l-7.4-7.4l-1.3-1.3l-2.8-2.8c4.9-7.6,4.9-17.3,0-24.9l1.8-1.8
				C47,9,47.7,9.2,48.3,9.2z M48.3,3.7c1,0,1.8,0.8,1.8,1.8s-0.8,1.8-1.8,1.8c-1,0-1.8-0.8-1.8-1.8S47.3,3.7,48.3,3.7z M54.8,48.1
				c1.2,1.1,1.2,3,0,4.2c-1.1,1.2-3,1.2-4.2,0c0,0,0,0,0,0l-7.4-7.4l4.2-4.2L54.8,48.1z M46.1,39.4l-4.2,4.2l-2.5-2.5
				c0.1-0.1,0.3-0.2,0.4-0.3s0.3-0.2,0.4-0.3c0.2-0.2,0.4-0.3,0.6-0.5c0.1-0.1,0.2-0.2,0.3-0.3c0.4-0.4,0.7-0.7,1.1-1.1
				c0.1-0.1,0.2-0.2,0.3-0.3c0.2-0.2,0.3-0.4,0.5-0.6c0.1-0.1,0.2-0.3,0.3-0.4c0.1-0.1,0.2-0.2,0.3-0.4L46.1,39.4z M42.6,35.2
				c-0.3,0.4-0.6,0.8-0.9,1.2c-0.1,0.1-0.2,0.2-0.3,0.3c-0.3,0.3-0.6,0.6-0.9,0.9c-0.1,0.1-0.3,0.3-0.4,0.4
				c-0.3,0.3-0.6,0.6-0.9,0.9c-0.1,0.1-0.2,0.2-0.3,0.3c-0.4,0.3-0.8,0.6-1.2,0.9c-9.5,6.8-22.7,4.6-29.4-4.9S3.6,12.5,13.1,5.7
				s22.7-4.6,29.4,4.9C47.8,18,47.8,27.8,42.6,35.2z"/>
		</g>
	</g>
</g>
<g id="enterprise_solution" class="st0">
	<g class="st2">
		<g>
			<path class="st3" d="M56.6,53.2h-5.5V22.9c0-0.5-0.4-0.9-0.9-0.9H37.3V0.9c0-0.5-0.4-0.9-0.9-0.9H12.6c-0.5,0-0.9,0.4-0.9,0.9
				v52.3H3.4c-0.5,0-0.9,0.4-0.9,0.9S2.9,55,3.4,55h53.2c0.5,0,0.9-0.4,0.9-0.9S57.1,53.2,56.6,53.2z M21.8,53.2h-3.7v-8.3
				c0-0.5,0.4-0.9,0.9-0.9h1.8c0.5,0,0.9,0.4,0.9,0.9V53.2z M25.4,22.9v30.3h-1.8v-8.3c0-1.5-1.2-2.8-2.8-2.8H19
				c-1.5,0-2.8,1.2-2.8,2.8v8.3h-2.8V1.8h22V22h-9.2C25.8,22,25.4,22.4,25.4,22.9z M49.3,53.2h-22V23.8h22V53.2z"/>
			<path class="st3" d="M31.8,12.8h-5.5c-0.5,0-0.9,0.4-0.9,0.9v5.5c0,0.5,0.4,0.9,0.9,0.9h5.5c0.5,0,0.9-0.4,0.9-0.9v-5.5
				C32.8,13.2,32.3,12.8,31.8,12.8z M30.9,18.3h-3.7v-3.7h3.7V18.3z"/>
			<path class="st3" d="M31.8,3.7h-5.5c-0.5,0-0.9,0.4-0.9,0.9v5.5c0,0.5,0.4,0.9,0.9,0.9h5.5c0.5,0,0.9-0.4,0.9-0.9V4.6
				C32.8,4.1,32.3,3.7,31.8,3.7z M30.9,9.2h-3.7V5.5h3.7V9.2z"/>
			<path class="st3" d="M22.7,12.8h-5.5c-0.5,0-0.9,0.4-0.9,0.9v5.5c0,0.5,0.4,0.9,0.9,0.9h5.5c0.5,0,0.9-0.4,0.9-0.9v-5.5
				C23.6,13.2,23.2,12.8,22.7,12.8z M21.8,18.3h-3.7v-3.7h3.7V18.3z"/>
			<path class="st3" d="M22.7,3.7h-5.5c-0.5,0-0.9,0.4-0.9,0.9v5.5c0,0.5,0.4,0.9,0.9,0.9h5.5c0.5,0,0.9-0.4,0.9-0.9V4.6
				C23.6,4.1,23.2,3.7,22.7,3.7z M21.8,9.2h-3.7V5.5h3.7V9.2z"/>
			<path class="st3" d="M22.7,22h-5.5c-0.5,0-0.9,0.4-0.9,0.9v5.5c0,0.5,0.4,0.9,0.9,0.9h5.5c0.5,0,0.9-0.4,0.9-0.9v-5.5
				C23.6,22.4,23.2,22,22.7,22z M21.8,27.5h-3.7v-3.7h3.7V27.5z"/>
			<path class="st3" d="M22.7,31.2h-5.5c-0.5,0-0.9,0.4-0.9,0.9v5.5c0,0.5,0.4,0.9,0.9,0.9h5.5c0.5,0,0.9-0.4,0.9-0.9v-5.5
				C23.6,31.6,23.2,31.2,22.7,31.2z M21.8,36.7h-3.7V33h3.7V36.7z"/>
			<path class="st3" d="M40.1,42.2h5.5c0.5,0,0.9-0.4,0.9-0.9v-5.5c0-0.5-0.4-0.9-0.9-0.9h-5.5c-0.5,0-0.9,0.4-0.9,0.9v5.5
				C39.2,41.8,39.6,42.2,40.1,42.2z M41,36.7h3.7v3.7H41V36.7z"/>
			<path class="st3" d="M40.1,33h5.5c0.5,0,0.9-0.4,0.9-0.9v-5.5c0-0.5-0.4-0.9-0.9-0.9h-5.5c-0.5,0-0.9,0.4-0.9,0.9v5.5
				C39.2,32.6,39.6,33,40.1,33z M41,27.5h3.7v3.7H41V27.5z"/>
			<path class="st3" d="M40.1,51.3h5.5c0.5,0,0.9-0.4,0.9-0.9v-5.5c0-0.5-0.4-0.9-0.9-0.9h-5.5c-0.5,0-0.9,0.4-0.9,0.9v5.5
				C39.2,50.9,39.6,51.3,40.1,51.3z M41,45.8h3.7v3.7H41V45.8z"/>
			<path class="st3" d="M30.9,42.2h5.5c0.5,0,0.9-0.4,0.9-0.9v-5.5c0-0.5-0.4-0.9-0.9-0.9h-5.5c-0.5,0-0.9,0.4-0.9,0.9v5.5
				C30,41.8,30.4,42.2,30.9,42.2z M31.8,36.7h3.7v3.7h-3.7V36.7z"/>
			<path class="st3" d="M30.9,33h5.5c0.5,0,0.9-0.4,0.9-0.9v-5.5c0-0.5-0.4-0.9-0.9-0.9h-5.5c-0.5,0-0.9,0.4-0.9,0.9v5.5
				C30,32.6,30.4,33,30.9,33z M31.8,27.5h3.7v3.7h-3.7V27.5z"/>
			<path class="st3" d="M30.9,51.3h5.5c0.5,0,0.9-0.4,0.9-0.9v-5.5c0-0.5-0.4-0.9-0.9-0.9h-5.5c-0.5,0-0.9,0.4-0.9,0.9v5.5
				C30,50.9,30.4,51.3,30.9,51.3z M31.8,45.8h3.7v3.7h-3.7V45.8z"/>
		</g>
	</g>
</g>
<g id="cloud_services" class="st0">
	<path class="st1" d="M44.7,40.3c0.5,0,0.9-0.4,0.9-0.9v-2.7h3.7c4,0,7.5-2.9,8.1-6.9c0.6-4-1.7-7.9-5.5-9.1
		c0.1-0.4,0.1-0.9,0.1-1.3c0-1.7-0.7-3.4-2-4.6c-1.3-1.2-3-1.9-4.7-1.8C44.1,5.9,38.4,0.7,31.4,0.1s-13.6,3.5-16,10.1
		c-2.1-0.3-4.2,0.4-5.8,1.8c-1.6,1.4-2.5,3.4-2.5,5.5c0,0.7,0.1,1.3,0.3,2c-3.7,2-5.6,6.2-4.6,10.3c1,4.1,4.7,6.9,8.9,6.9h2.7v2.7
		c0,0.5,0.4,0.9,0.9,0.9h7.3v5.5h-8.4c-0.4-1.3-1.7-2-3.1-1.8c-1.3,0.2-2.3,1.4-2.3,2.7c0,1.3,1,2.5,2.3,2.7
		c1.3,0.2,2.6-0.5,3.1-1.8h9.3c0.5,0,0.9-0.4,0.9-0.9v-6.4h4.6v9.3c-1.3,0.4-2,1.7-1.8,3.1C27.5,54,28.7,55,30,55
		c1.3,0,2.5-1,2.7-2.3c0.2-1.3-0.5-2.6-1.8-3.1v-9.3h4.6v6.4c0,0.5,0.4,0.9,0.9,0.9h9.3c0.4,1.3,1.7,2,3.1,1.8
		c1.3-0.2,2.3-1.4,2.3-2.7c0-1.3-1-2.5-2.3-2.7c-1.3-0.2-2.6,0.5-3.1,1.8h-8.4v-5.5H44.7z M11.7,47.7c-0.5,0-0.9-0.4-0.9-0.9
		c0-0.5,0.4-0.9,0.9-0.9c0.5,0,0.9,0.4,0.9,0.9C12.6,47.2,12.2,47.7,11.7,47.7z M30,53.2c-0.5,0-0.9-0.4-0.9-0.9
		c0-0.5,0.4-0.9,0.9-0.9c0.5,0,0.9,0.4,0.9,0.9C30.9,52.7,30.5,53.2,30,53.2z M48.3,45.8c0.5,0,0.9,0.4,0.9,0.9
		c0,0.5-0.4,0.9-0.9,0.9c-0.5,0-0.9-0.4-0.9-0.9C47.4,46.2,47.8,45.8,48.3,45.8z M14.4,32.1v2.7h-2.7c-3.5,0-6.5-2.5-7.2-5.9
		c-0.7-3.4,1.1-6.9,4.4-8.2c0.2-0.1,0.4-0.3,0.5-0.5c0.1-0.2,0.1-0.5,0-0.7c-0.3-0.7-0.4-1.4-0.4-2.1c0-3,2.5-5.5,5.5-5.5
		c0.5,0,0.9,0.1,1.3,0.2c0.5,0.1,1-0.1,1.1-0.6c1.9-6.2,7.9-10.2,14.4-9.6C37.7,2.5,42.9,7.5,43.6,14c0,0.3,0.2,0.5,0.4,0.6
		c0.2,0.2,0.5,0.2,0.7,0.2c0.3-0.1,0.6-0.1,0.8-0.1c2.5,0,4.6,2.1,4.6,4.6c0,0.6-0.1,1.1-0.3,1.6c-0.1,0.3-0.1,0.5,0,0.8
		s0.4,0.4,0.6,0.5c3.2,0.7,5.4,3.7,5.1,6.9c-0.3,3.3-3.1,5.8-6.4,5.8h-3.7v-2.7c0-0.5-0.4-0.9-0.9-0.9h-1.8v-1.8h1.8
		c0.5,0,0.9-0.4,0.9-0.9v-7.3c0-0.5-0.4-0.9-0.9-0.9H15.3c-0.5,0-0.9,0.4-0.9,0.9v7.3c0,0.5,0.4,0.9,0.9,0.9h1.8v1.8h-1.8
		C14.8,31.2,14.4,31.6,14.4,32.1z M16.2,27.5V22h27.5v5.5H16.2z M19,29.3h22v1.8H19V29.3z M16.2,33h27.5v5.5H16.2V33z"/>
	<path class="st1" d="M21.7,24.8c0,1-0.8,1.8-1.8,1.8c-1,0-1.8-0.8-1.8-1.8c0-1,0.8-1.8,1.8-1.8C20.9,22.9,21.7,23.7,21.7,24.8z"/>
	<path class="st1" d="M21.7,35.7c0,1-0.8,1.8-1.8,1.8c-1,0-1.8-0.8-1.8-1.8c0-1,0.8-1.8,1.8-1.8C20.9,33.9,21.7,34.7,21.7,35.7z"/>
</g>
<g id="e-commerce">
	<g>
		<g>
			<path class="st3" d="M56,2.5H4c-2,0-3.7,1.6-3.7,3.7v35.3c0,2,1.6,3.7,3.7,3.7h17.6l-0.7,5.7h-2.9c-0.5,0-0.9,0.4-0.9,0.9
				c0,0.5,0.4,0.9,0.9,0.9h24.1c0.5,0,0.9-0.4,0.9-0.9c0-0.5-0.4-0.9-0.9-0.9h-2.9l-0.7-5.7H56c2,0,3.7-1.6,3.7-3.7V6.2
				C59.6,4.1,58,2.5,56,2.5z M22.6,50.8l0.7-5.7h3.2l0.3,1.3c0.4,1.4,1.7,2.5,3.1,2.5s2.8-1,3.1-2.5l0.3-1.3h3.2l0.7,5.7H22.6z
				 M28.3,45.1h3.3l-0.2,0.8c-0.2,0.7-0.8,1.1-1.5,1.1c-0.7,0-1.3-0.5-1.5-1.1L28.3,45.1z M57.9,41.4L57.9,41.4
				c0,1.1-0.9,1.9-1.9,1.9H4c-1.1,0-1.9-0.9-1.9-1.9V6.2C2.1,5.1,3,4.2,4,4.2h52c1.1,0,1.9,0.9,1.9,1.9V41.4L57.9,41.4z"/>
		</g>
	</g>
	<g>
		<g>
			<path class="st3" d="M49.5,6.2H4.9c-0.5,0-0.9,0.4-0.9,0.9v33.4c0,0.5,0.4,0.9,0.9,0.9h1.9c0.5,0,0.9-0.4,0.9-0.9
				c0-0.5-0.4-0.9-0.9-0.9h-1V7.9h43.7c0.5,0,0.9-0.4,0.9-0.9C50.4,6.6,50,6.2,49.5,6.2z"/>
		</g>
	</g>
	<g>
		<g>
			<path class="st3" d="M55.1,6.2h-1.9c-0.5,0-0.9,0.4-0.9,0.9c0,0.5,0.4,0.9,0.9,0.9h1v31.7H10.5c-0.5,0-0.9,0.4-0.9,0.9
				c0,0.5,0.4,0.9,0.9,0.9h44.6c0.5,0,0.9-0.4,0.9-0.9V7.1C55.9,6.6,55.5,6.2,55.1,6.2z"/>
		</g>
	</g>
	<g>
		<g>
			<path class="st3" d="M41.8,15.8c-0.2-0.2-0.4-0.3-0.6-0.3l-20.4-0.9c0,0,0,0,0,0c-0.1-0.4-0.4-0.7-0.7-1l-2.5-1.7
				c-0.4-0.3-0.9-0.2-1.2,0.2c-0.3,0.4-0.2,0.9,0.2,1.2L19,15c0,0,0,0,0,0l3.2,11.1c0.1,0.3,0.3,0.7,0.5,0.9l-1.2,2.3
				c-0.3,0.6-0.3,1.2,0.1,1.7c0.1,0.2,0.3,0.4,0.4,0.5c-0.2,0.4-0.4,0.9-0.4,1.3c0,1.5,1.2,2.7,2.7,2.7c1.5,0,2.7-1.2,2.7-2.7
				c0-0.3-0.1-0.7-0.2-1h7.9c-0.1,0.3-0.2,0.6-0.2,1c0,1.5,1.2,2.7,2.7,2.7s2.7-1.2,2.7-2.7c0-0.4-0.1-0.8-0.3-1.2
				c0.2-0.2,0.3-0.4,0.3-0.6c0-0.5-0.4-0.9-0.9-0.9H23.1c0,0,0,0-0.1,0c0,0,0,0,0-0.1l1.1-2.1c0.2,0.1,0.4,0.1,0.7,0.1
				c0.1,0,0.2,0,0.3,0l12.2-1.4c1.6-0.2,2.8-1.4,3.2-2.9l1.5-7.3C42,16.3,42,16,41.8,15.8z M37.4,32.1c0.5,0,1,0.4,1,1
				c0,0.5-0.4,1-1,1s-1-0.4-1-1C36.4,32.5,36.9,32.1,37.4,32.1z M24.4,32.1c0.5,0,1,0.4,1,1s-0.4,1-1,1s-1-0.4-1-1
				C23.4,32.5,23.9,32.1,24.4,32.1z M22.3,20.1l-1.1-3.8l3.5,0.2l0.6,3.7H22.3z M25,26.5c-0.5,0.1-0.9-0.2-1.1-0.7l-1.1-3.9h2.8
				l0.7,4.4L25,26.5z M30.1,25.9l-2,0.2l-0.7-4.2h2.7V25.9z M30.1,20.1h-3l-0.6-3.6l3.6,0.2V20.1z M34.5,25.3l-2.7,0.3v-3.8h3
				L34.5,25.3z M34.9,20.1h-3.1v-3.3l3.4,0.2L34.9,20.1z M38.8,23.5c-0.2,0.8-0.8,1.4-1.7,1.5l-1,0.1l0.3-3.3h2.6L38.8,23.5z
				 M39.5,20.1h-2.8L37,17l3.1,0.1L39.5,20.1z"/>
		</g>
	</g>
</g>
<g id="mobile_apps" class="st0">
	<path class="st1" d="M40.6,0H19.4c-2.4,0-4.4,2-4.4,4.4v46.1c0,2.4,2,4.4,4.4,4.4h21.3c2.4,0,4.4-2,4.4-4.4V4.4
		C45.1,2,43.1,0,40.6,0z M34.2,1.8l-0.4,1.8h-7.5l-0.4-1.8H34.2z M43.3,50.6c0,1.5-1.2,2.7-2.7,2.7H19.4c-1.5,0-2.7-1.2-2.7-2.7V4.4
		c0-1.5,1.2-2.7,2.7-2.7H24l0.7,2.9c0.1,0.4,0.5,0.7,0.9,0.7h8.9c0.4,0,0.8-0.3,0.9-0.7L36,1.8h4.6c1.5,0,2.7,1.2,2.7,2.7V50.6z"/>
	<path class="st1" d="M25.7,50.6h-6.2c-0.5,0-0.9,0.4-0.9,0.9s0.4,0.9,0.9,0.9h6.2c0.5,0,0.9-0.4,0.9-0.9S26.2,50.6,25.7,50.6z"/>
	<path class="st1" d="M29.1,50.6h-0.9c-0.5,0-0.9,0.4-0.9,0.9s0.4,0.9,0.9,0.9h0.9c0.5,0,0.9-0.4,0.9-0.9S29.6,50.6,29.1,50.6z"/>
	<path class="st1" d="M24.7,16.9h10.6c0.5,0,0.9-0.4,0.9-0.9v-3.5c0-0.5-0.4-0.9-0.9-0.9H24.7c-0.5,0-0.9,0.4-0.9,0.9V16
		C23.8,16.5,24.2,16.9,24.7,16.9z M25.6,13.3h8.9v1.8h-8.9V13.3z"/>
	<path class="st1" d="M35.3,38.1H24.7c-0.5,0-0.9,0.4-0.9,0.9s0.4,0.9,0.9,0.9h10.6c0.5,0,0.9-0.4,0.9-0.9S35.8,38.1,35.3,38.1z"/>
	<path class="st1" d="M32.7,41.7h-5.3c-0.5,0-0.9,0.4-0.9,0.9s0.4,0.9,0.9,0.9h5.3c0.5,0,0.9-0.4,0.9-0.9S33.2,41.7,32.7,41.7z"/>
	<path class="st1" d="M37.1,18.6H22.9c-1,0-1.8,0.8-1.8,1.8v14.2c0,1,0.8,1.8,1.8,1.8h14.2c1,0,1.8-0.8,1.8-1.8V20.4
		C38.9,19.4,38.1,18.6,37.1,18.6z M28.2,20.4h3.5V25l-1.3-0.9c-0.3-0.2-0.7-0.2-1,0L28.2,25V20.4z M37.1,34.6H22.9V20.4h3.5v6.2
		c0,0.5,0.4,0.9,0.9,0.9c0.2,0,0.3-0.1,0.5-0.1l2.2-1.4l2.2,1.4c0.1,0.1,0.3,0.1,0.5,0.1c0.5,0,0.9-0.4,0.9-0.9v-6.2h3.5V34.6
		L37.1,34.6z"/>
	<path class="st1" d="M27.3,29.3h-2.7c-0.5,0-0.9,0.4-0.9,0.9v2.7c0,0.5,0.4,0.9,0.9,0.9h2.7c0.5,0,0.9-0.4,0.9-0.9v-2.7
		C28.2,29.7,27.8,29.3,27.3,29.3z M26.5,31.9h-0.9V31h0.9V31.9z"/>
	<path class="st1" d="M32.7,29.3H30c-0.5,0-0.9,0.4-0.9,0.9c0,0.5,0.4,0.9,0.9,0.9h2.7c0.5,0,0.9-0.4,0.9-0.9
		C33.5,29.7,33.2,29.3,32.7,29.3z"/>
	<path class="st1" d="M30.9,31.9H30c-0.5,0-0.9,0.4-0.9,0.9c0,0.5,0.4,0.9,0.9,0.9h0.9c0.5,0,0.9-0.4,0.9-0.9
		C31.8,32.3,31.4,31.9,30.9,31.9z"/>
</g>
<g id="ui_ux_design" class="st0">
	<path class="st1" d="M54.6,9.5h-9.5V3.8c0-1.6-1.3-2.8-2.8-2.8H17.7c-1.6,0-2.8,1.3-2.8,2.8v5.7H5.4c-2.6,0-4.7,2.1-4.7,4.7v26.5
		c0,2.6,2.1,4.7,4.7,4.7h18.5l-1.3,3.8h-3.9c-0.5,0-0.9,0.4-0.9,0.9v2.8c0,0.5,0.4,0.9,0.9,0.9h22.7c0.5,0,0.9-0.4,0.9-0.9v-2.8
		c0-0.5-0.4-0.9-0.9-0.9h-4.1L36,45.5h18.7c2.6,0,4.7-2.1,4.7-4.7V14.3C59.3,11.6,57.2,9.5,54.6,9.5z M16.8,3.8
		c0-0.5,0.4-0.9,0.9-0.9h24.6c0.5,0,0.9,0.4,0.9,0.9v2.8H16.8V3.8z M16.8,8.6h26.5v29.3H16.8V8.6z M2.6,14.3c0-1.6,1.3-2.8,2.8-2.8
		h9.5v26.5H2.6V14.3z M40.4,51.2v0.9H19.6v-0.9H40.4z M24.6,49.3l1.3-3.8h8l1.3,3.8H24.6z M57.4,40.8c0,1.6-1.3,2.8-2.8,2.8H5.4
		c-1.6,0-2.8-1.3-2.8-2.8v-0.9h54.9V40.8z M57.4,37.9H45.1V11.4h9.5c1.6,0,2.8,1.3,2.8,2.8V37.9z"/>
	<path class="st1" d="M12,40.8H5.4c-0.5,0-0.9,0.4-0.9,0.9s0.4,0.9,0.9,0.9H12c0.5,0,0.9-0.4,0.9-0.9S12.5,40.8,12,40.8z"/>
	<path class="st1" d="M15.8,40.8h-0.9c-0.5,0-0.9,0.4-0.9,0.9s0.4,0.9,0.9,0.9h0.9c0.5,0,0.9-0.4,0.9-0.9S16.3,40.8,15.8,40.8z"/>
	<circle class="st1" cx="18.5" cy="4.8" r="0.9"/>
	<circle class="st1" cx="21.5" cy="4.8" r="0.9"/>
	<circle class="st1" cx="24.3" cy="4.8" r="0.9"/>
	<path class="st1" d="M36.6,17.1h-1.9v-0.9c0-1.6-1.3-2.8-2.8-2.8c-0.7,0-1.4,0.3-1.9,0.7c-1.2-1-3-0.9-4,0.2
		c-0.5,0.5-0.7,1.2-0.7,1.9v0.9h-1.9c-0.5,0-0.9,0.4-0.9,0.9v11.4c0,0.5,0.4,0.9,0.9,0.9h13.3c0.5,0,0.9-0.4,0.9-0.9V18
		C37.6,17.5,37.1,17.1,36.6,17.1z M27.2,16.1c0-0.5,0.4-0.9,0.9-0.9s0.9,0.4,0.9,0.9v0.9h-1.9V16.1z M31.9,28.4h-7.6V19h0.9v0.9
		c0,0.5,0.4,0.9,0.9,0.9c0.5,0,0.9-0.4,0.9-0.9V19h1.9v0.9c0,0.5,0.4,0.9,0.9,0.9s0.9-0.4,0.9-0.9V19h0.9V28.4z M32.8,17.1h-1.9
		v-0.9c0-0.5,0.4-0.9,0.9-0.9s0.9,0.4,0.9,0.9V17.1z M35.7,28.4h-1.9V19h1.9V28.4z"/>
	<path class="st1" d="M24.3,35.1h-5.7c-0.5,0-0.9,0.4-0.9,0.9s0.4,0.9,0.9,0.9h5.7c0.5,0,0.9-0.4,0.9-0.9S24.8,35.1,24.3,35.1z"/>
	<path class="st1" d="M28.1,35.1h-0.9c-0.5,0-0.9,0.4-0.9,0.9s0.4,0.9,0.9,0.9h0.9c0.5,0,0.9-0.4,0.9-0.9S28.6,35.1,28.1,35.1z"/>
</g>
<g id="testing__x26__qa" class="st0">
	<g class="st2">
		<g>
			<path class="st3" d="M46.1,29.8V0H2.5v48.1h31.1C35.7,52.2,40,55,44.9,55c7,0,12.6-5.7,12.6-12.6C57.5,35.8,52.5,30.4,46.1,29.8z
				 M32.7,45.8H4.9V2.4h38.8v27.4c-6.4,0.6-11.4,6-11.4,12.6C32.2,43.5,32.4,44.7,32.7,45.8z M44.9,52.6c-5.7,0-10.3-4.6-10.3-10.3
				s4.6-10.3,10.3-10.3s10.3,4.6,10.3,10.3S50.5,52.6,44.9,52.6z"/>
		</g>
	</g>
	<g class="st2">
		<g>
			<path class="st3" d="M7.1,4.6v11.5h11.5V4.6H7.1z M16.2,13.7H9.5V7h6.8V13.7L16.2,13.7z"/>
		</g>
	</g>
	<g class="st2">
		<g>
			<rect x="22" y="5.7" class="st3" width="12.6" height="2.4"/>
		</g>
	</g>
	<g class="st2">
		<g>
			<rect x="22" y="11.4" class="st3" width="19.5" height="2.4"/>
		</g>
	</g>
	<g class="st2">
		<g>
			<path class="st3" d="M7.1,18.3v11.5h11.5V18.3H7.1z M16.2,27.5H9.5v-6.8h6.8V27.5L16.2,27.5z"/>
		</g>
	</g>
	<g class="st2">
		<g>
			<rect x="22" y="19.5" class="st3" width="12.6" height="2.4"/>
		</g>
	</g>
	<g class="st2">
		<g>
			<rect x="22" y="25.2" class="st3" width="19.5" height="2.4"/>
		</g>
	</g>
	<g class="st2">
		<g>
			<path class="st3" d="M7.1,32v11.5h11.5V32H7.1z M16.2,41.2H9.5v-6.8h6.8V41.2L16.2,41.2z"/>
		</g>
	</g>
	<g class="st2">
		<g>
			<polygon class="st3" points="50.3,37.5 43.2,44.7 39.4,41 37.7,42.6 43.2,48 52,39.2 			"/>
		</g>
	</g>
</g>
<g id="development_center" class="st0">
	<path class="st1" d="M55.7,53.2h1.8V55h-1.8V53.2z"/>
	<path class="st1" d="M2.5,53.2h1.8V55H2.5V53.2z"/>
	<path class="st1" d="M52.2,16H38v-9c0.4-0.1,0.7-0.3,1-0.6c0.5-0.5,0.8-1.2,0.8-1.9l0-1.8c0-1.5-1.2-2.7-2.7-2.7H12.3
		c-1.5,0-2.7,1.2-2.7,2.7v1.8c0,1.2,0.7,2.1,1.8,2.5v25.3L7.8,34v19.2H6V55H54v-1.8h-1.8V16z M50.4,53.2h-5.3v-7.1h-5.3v-1.8h8.9
		v-7.1H32.8l-1.9-0.8V17.7h19.5V53.2z M34.4,53.2h-3.5v-7.1h3.5V53.2z M29.1,44.4v8.9h-3.5v-8.9h-7.1v8.9h-1.8V32.4l21.3,9v11.8
		h-1.8v-8.9H29.1z M23.8,53.2h-3.5v-7.1h3.5V53.2z M37,39h9.9v3.5h-7.1v-2.4L37,39z M39.8,47.9h3.5v5.3h-3.5V47.9z M11.4,2.7
		c0-0.5,0.4-0.9,0.9-0.9h24.8c0.5,0,0.9,0.4,0.9,0.9l0,1.8c0,0.2-0.1,0.5-0.3,0.6c-0.2,0.2-0.4,0.3-0.6,0.3H12.3
		c-0.5,0-0.9-0.4-0.9-0.9L11.4,2.7z M13.1,7.1h23.1V16h-7.1v19.7l-13.3-5.6l-2.6,1.3V7.1z M9.6,35.1l5.3-2.7v20.7H9.6V35.1z"/>
	<path class="st1" d="M18.1,36.6l0.7-1.6l1.8,0.8l-0.7,1.6L18.1,36.6z"/>
	<path class="st1" d="M21.8,38.1l0.7-1.6l9.7,4.1l-0.7,1.6L21.8,38.1z"/>
	<path class="st1" d="M20.2,16h-5.3v5.3h5.3V16z M18.5,19.5h-1.8v-1.8h1.8V19.5z"/>
	<path class="st1" d="M20.2,8.9h-5.3v5.3h5.3V8.9z M18.5,12.4h-1.8v-1.8h1.8V12.4z"/>
	<path class="st1" d="M27.3,16H22v5.3h5.3V16z M25.6,19.5h-1.8v-1.8h1.8V19.5z"/>
	<path class="st1" d="M27.3,8.9H22v5.3h5.3V8.9z M25.6,12.4h-1.8v-1.8h1.8V12.4z"/>
	<path class="st1" d="M34.4,8.9h-5.3v5.3h5.3V8.9z M32.7,12.4h-1.8v-1.8h1.8V12.4z"/>
	<path class="st1" d="M20.2,23.1h-5.3v5.3h5.3V23.1z M18.5,26.6h-1.8v-1.8h1.8V26.6z"/>
	<path class="st1" d="M27.3,23.1H22v5.3h5.3V23.1z M25.6,26.6h-1.8v-1.8h1.8V26.6z"/>
	<path class="st1" d="M48.6,19.5h-16v7.1h16V19.5z M46.9,24.8H34.4v-3.5h12.4V24.8z"/>
	<path class="st1" d="M48.6,28.4h-16v7.1h16V28.4z M46.9,33.7H34.4v-3.5h12.4V33.7z"/>
</g>
</svg>
